<svg id="Capa_1" enable-background="new 0 0 499.806 499.806" height="512" viewBox="0 0 499.806 499.806" width="512" xmlns="http://www.w3.org/2000/svg"><g><path d="m272.053 190.104v33.51c0 1.16-.99 2.06-2.14 1.95l-2.41-.23-83-8c-59.94-5.77-116.09-31.89-159.12-74.01-1.17-1.15-1.74-2.64-1.74-4.14 0-1.75.79-3.49 2.32-4.63l34.62-25.88c35.82-26.78 77.86-44.01 122.17-50.06l31.96-4.36 2.83.13 54.51 2.53z" fill="#efedef"/><g><path d="m225.612 167.543-6.099 22.561c.93 1.45 47.99 35.23 47.99 35.23l2.41.23c1.15.11 2.14-.79 2.14-1.95v-33.51-22.561z" fill="#e5e1e5"/></g><g><path d="m421.383 20.854v169.25h-200.06-1.81c-1.27-1.97-1.97-4.29-1.97-6.71v-150.12c0-6.86 5.56-12.42 12.42-12.42z" fill="#fee97d"/></g><g><path d="m421.383 20.854v169.25h-200.06-1.81c-1.27-1.97-1.97-4.29-1.97-6.71v-150.12c0-6.86 5.56-12.42 12.42-12.42z" fill="#f9f7f8"/></g><g id="XMLID_515_"><g><path d="m433.703 238.194v217.41h-130.85c-8.44 0-16.75-2.12-24.15-6.18l-41.28-22.63h-131.1v-135.4l151.51-.02 71.13-45.66c7.66-4.91 16.57-7.52 25.67-7.52z" fill="#ffdfcf"/></g></g><path d="m308.708 426.264c-8.44 0-16.75-2.12-24.15-6.18l-33.824-18.542c-4.892-2.682-10.381-4.088-15.959-4.088h-122.597v-106.06l-5.854.001v135.4h131.1l41.28 22.63c7.4 4.06 15.71 6.18 24.15 6.18h130.85v-29.34h-124.996z" fill="#ffcebf"/><g><g id="XMLID_513_"><g><path d="m433.703 266.085h-31.26c-11.249 0-21.822 4.378-29.772 12.327-7.949 7.95-12.327 18.523-12.327 29.772 0 8.094 2.3 15.658 6.273 22.083-4.081 6.583-6.273 14.184-6.273 22.126 0 8.094 2.3 15.658 6.273 22.083-4.081 6.583-6.273 14.184-6.273 22.126 0 8.094 2.3 15.658 6.273 22.083-4.081 6.583-6.273 14.184-6.273 22.126 0 5.203.955 10.186 2.688 14.79h70.672v-189.516z" fill="#ffcebf"/><path d="m354.633 238.194c-9.1 0-18.01 2.61-25.67 7.52l-37.373 23.991v70.258c0 17.017 13.621 30.909 30.635 31.251h.008c29.919 0 57.858-16.062 72.906-41.903l3.683-6.313 5.336-11.623h29.546v-73.18h-79.071z" fill="#ffcebf"/><path d="m433.703 238.194v53.18h-42.37l-10.28 22.39-3.19 5.47c-11.53 19.8-32.71 31.98-55.63 31.98h-16.79c-25.151 0-45.54-20.389-45.54-45.54l-.6-15.24 69.66-44.72c7.66-4.91 16.57-7.52 25.67-7.52z" fill="#ffdfcf"/></g></g></g><path d="m379.437 20.854h41.946v169.25h-41.946z" fill="#efedef"/><path d="m437.119 10.581c0-5.844-4.737-10.581-10.581-10.581h-16.52c-5.844 0-10.581 4.737-10.581 10.581v482.609c0 3.654 2.962 6.617 6.617 6.617h24.77c3.656 0 6.619-2.965 6.617-6.621z" fill="#baafb9"/><g><g id="XMLID_517_"><g fill="#ffdfcf"><path d="m454.063 286.084c12.21 0 22.1 9.89 22.1 22.1 0 6.1-2.47 11.63-6.47 15.63-4 4.01-9.52 6.48-15.63 6.48h-2.62-49c-12.2 0-22.1-9.9-22.1-22.11 0-6.1 2.47-11.63 6.47-15.63s9.53-6.47 15.63-6.47z"/><path d="m451.443 330.294c12.2 0 22.1 9.89 22.1 22.1 0 6.11-2.47 11.63-6.47 15.63s-9.53 6.48-15.63 6.48h-6.12-42.88c-12.2 0-22.1-9.9-22.1-22.11 0-6.11 2.47-11.63 6.47-15.63s9.53-6.47 15.63-6.47z"/><path d="m445.323 374.504c12.21 0 22.1 9.89 22.1 22.1 0 6.1-2.47 11.63-6.47 15.63-4 4.01-9.52 6.48-15.63 6.48h-5-37.88c-12.2 0-22.1-9.9-22.1-22.11 0-6.1 2.47-11.63 6.47-15.63s9.53-6.47 15.63-6.47z"/><path d="m440.323 418.714c12.21 0 22.1 9.9 22.1 22.1 0 6.11-2.47 11.63-6.47 15.63s-9.52 6.48-15.63 6.48h-37.88c-12.2 0-22.1-9.9-22.1-22.11 0-6.1 2.47-11.63 6.47-15.63s9.53-6.47 15.63-6.47z"/></g></g><g id="XMLID_520_"><g fill="#ffcebf"><path d="m475.143 308.391c-4 4.01-9.52 6.48-15.63 6.48h-2.62-49c-11.909 0-21.635-9.429-22.091-21.236-3.406 3.889-5.459 8.976-5.459 14.549 0 12.21 9.9 22.11 22.1 22.11h49 2.62c6.11 0 11.63-2.47 15.63-6.48 4-4 6.47-9.53 6.47-15.63 0-.291-.011-.58-.022-.868-.322.368-.652.729-.998 1.075z"/><path d="m472.523 352.601c-4 4-9.53 6.48-15.63 6.48h-6.12-42.88c-11.909 0-21.638-9.425-22.095-21.232-3.406 3.888-5.455 8.963-5.455 14.545 0 12.21 9.9 22.11 22.1 22.11h42.88 6.12c6.1 0 11.63-2.48 15.63-6.48s6.47-9.52 6.47-15.63c0-.291-.011-.58-.022-.868-.322.368-.652.729-.998 1.075z"/><path d="m466.403 396.811c-4 4.01-9.52 6.48-15.63 6.48h-5-37.88c-11.909 0-21.64-9.423-22.096-21.23-3.406 3.889-5.454 8.97-5.454 14.543 0 12.21 9.9 22.11 22.1 22.11h37.88 5c6.11 0 11.63-2.47 15.63-6.48 4-4 6.47-9.53 6.47-15.63 0-.291-.011-.58-.022-.868-.322.368-.652.73-.998 1.075z"/><path d="m461.403 441.021c-4 4-9.52 6.48-15.63 6.48h-37.88c-11.909 0-21.633-9.43-22.09-21.237-3.406 3.889-5.46 8.978-5.46 14.55 0 12.21 9.9 22.11 22.1 22.11h37.88c6.11 0 11.63-2.48 15.63-6.48s6.47-9.52 6.47-15.63c0-.291-.011-.58-.022-.868-.322.368-.652.73-.998 1.075z"/></g></g><path d="m69.153 443.498h74.182c13.577 0 24.583-11.006 24.583-24.583v-119.667c0-13.577-11.006-24.583-24.583-24.583h-74.182c-3.691 0-6.684 2.992-6.684 6.684v155.465c0 3.691 2.993 6.684 6.684 6.684z" fill="#fdb97e"/></g></g></svg>